<svg width="102" height="60" viewBox="0 0 102 60" fill="none" xmlns="http://www.w3.org/2000/svg">
<path d="M0 10C0 4.47715 4.47715 0 10 0H92C97.5229 0 102 4.47715 102 10V50C102 55.5228 97.5229 60 92 60H10C4.47715 60 0 55.5228 0 50V10Z" fill="#F2F4F5"/>
<path fill-rule="evenodd" clip-rule="evenodd" d="M71.297 29.9577C71.297 18.8457 62.3418 9.83606 51.297 9.83606C40.2522 9.83606 31.297 18.8457 31.297 29.9577C31.297 40.0001 38.6097 48.3249 48.1723 49.8361V35.7755H43.0928V29.9577H48.1723V25.5236C48.1723 20.4811 51.1592 17.6939 55.7267 17.6939C57.9149 17.6939 60.2043 18.0872 60.2043 18.0872V23.0392H57.6814C55.198 23.0392 54.4217 24.5898 54.4217 26.1829V29.9575H59.9679L59.082 35.7753H54.4215V49.8359C63.9842 48.3275 71.297 40.0029 71.297 29.9577Z" fill="#0078FF"/>
</svg>
