<svg width="102" height="60" viewBox="0 0 102 60" fill="none" xmlns="http://www.w3.org/2000/svg">
<path d="M0 10C0 4.47715 4.47715 0 10 0H92C97.5229 0 102 4.47715 102 10V50C102 55.5228 97.5229 60 92 60H10C4.47715 60 0 55.5228 0 50V10Z" fill="#F2F4F5"/>
<g clip-path="url(#clip0_915_1141)">
<path d="M70.8195 30.2964C70.8195 28.9368 70.7093 27.57 70.4741 26.2325H51.6095V33.9341H62.4124C61.9641 36.418 60.5237 38.6153 58.4146 40.0116V45.0089H64.8595C68.6442 41.5255 70.8195 36.3813 70.8195 30.2964Z" fill="#4285F4"/>
<path d="M51.6096 49.8375C57.0036 49.8375 61.5526 48.0664 64.867 45.0093L58.422 40.012C56.6288 41.2319 54.3139 41.9227 51.6169 41.9227C46.3992 41.9227 41.9752 38.4026 40.3878 33.6699H33.7371V38.8215C37.1322 45.5751 44.0476 49.8375 51.6096 49.8375Z" fill="#34A853"/>
<path d="M40.3804 33.67C39.5426 31.1861 39.5426 28.4964 40.3804 26.0125V20.8609H33.737C30.9003 26.5122 30.9003 33.1703 33.737 38.8216L40.3804 33.67Z" fill="#FBBC04"/>
<path d="M51.6096 17.7522C54.4609 17.7081 57.2168 18.781 59.2818 20.7505L64.9919 15.0404C61.3762 11.6452 56.5774 9.77862 51.6096 9.83741C44.0475 9.83741 37.1322 14.0998 33.7371 20.8607L40.3805 26.0123C41.9605 21.2723 46.3918 17.7522 51.6096 17.7522Z" fill="#EA4335"/>
</g>
<defs>
<clipPath id="clip0_915_1141">
<rect width="40" height="40" fill="white" transform="translate(31.297 9.83606)"/>
</clipPath>
</defs>
</svg>
